<?xml version="1.0" encoding="utf-8"?>
<!-- Generator: Adobe Illustrator 23.0.3, SVG Export Plug-In . SVG Version: 6.00 Build 0)  -->
<svg version="1.1" id="Layer_1" xmlns="http://www.w3.org/2000/svg" xmlns:xlink="http://www.w3.org/1999/xlink" x="0px" y="0px"
	 viewBox="0 0 3777.7 1000" style="enable-background:new 0 0 3777.7 1000;" xml:space="preserve">
<style type="text/css">
	.st0{fill:#1F1F1F;}
	.st1{fill:#FFFFFF;}
</style>
<g>
	<g>
		<g>
			<path class="st1" d="M800.9,339.8c-28-66-74.6-122.2-133.4-161.9C608.9,138.2,538,115,462,115c-50.7,0-99.1,10.3-143.1,29
				c-66,28-122.2,74.6-161.9,133.4C117.3,336,94,406.9,94,482.9c0,50.7,10.3,99.1,29,143.1c28,66,74.6,122.2,133.4,161.9
				c58.7,39.7,129.6,62.9,205.6,62.9c50.7,0,99.1-10.3,143.1-29c66-28,122.2-74.6,161.9-133.4c39.7-58.7,62.9-129.6,62.9-205.6
				C829.9,432.3,819.6,383.8,800.9,339.8z M755.7,606.9c-24.2,57.2-64.7,106-115.7,140.4c-50.9,34.4-112.1,54.5-178.1,54.5
				c-44,0-85.8-8.9-124-25.1c-57.2-24.2-106-64.7-140.4-115.7c-34.4-50.9-54.5-112.1-54.5-178.1c0-44,8.9-85.8,25.1-124
				c24.2-57.2,64.7-106,115.7-140.4c50.9-34.4,112.1-54.5,178.1-54.5c44,0,85.8,8.9,124,25.1c57.2,24.2,106,64.7,140.4,115.7
				c34.4,50.9,54.5,112.1,54.5,178.1C780.8,526.9,771.9,568.8,755.7,606.9z"/>
		</g>
	</g>
	<g>
		<path class="st1" d="M728.8,428.9c-10.6-25-28.2-46.2-50.4-61.2c-11-7.5-23.3-13.4-36.4-17.4c-13-4.1-26.9-6.3-41.3-6.3
			c-18.4,0-36.1,3.6-52.3,10.2c-1.4,0.5-2.6,1.1-3.9,1.7c-14.6,6.4-27.9,15.4-39.3,26.1c-3.7,3.5-7.2,7.2-10.7,11.3
			c-6.2,7.1-12.6,15.3-18.8,23.5c-1.3,1.7-2.6,3.5-3.9,5.2c-3.4,4.7-36,52.5-41.8,61c-2.9,4.3-6.3,9.2-10,14.5
			c-0.8,1.2-1.7,2.4-2.6,3.7c-6.1,8.7-12.9,17.9-19.2,26c-3.1,4-6.3,7.8-9,11c-2.8,3.2-5.3,5.8-7.1,7.5
			c-7.7,7.3-16.8,13.2-26.8,17.2c-10,4-20.8,6.3-32.3,6.3c-7.9,0-15.5-1.1-22.7-3.1c-3.7-1-7.3-2.2-10.8-3.8
			c-15.5-6.5-28.7-17.4-37.9-31.2c-4.7-6.9-8.4-14.5-10.9-22.5c-2.4-8.1-3.9-16.6-3.9-25.6c0-11.9,2.4-23.2,6.7-33.5
			c6.6-15.4,17.5-28.6,31.3-37.9c6.9-4.7,14.5-8.3,22.5-10.8c8.1-2.5,16.6-3.9,25.6-3.9c11.5,0.1,22.4,2.2,32.3,6.3
			c10,4.1,19,10,26.8,17.2c1.8,1.7,4.3,4.4,7.1,7.6c4.9,5.7,10.6,12.9,16.4,20.6c2.2,3.1,4.5,6.1,6.7,9.2
			c8.6-12.6,23.7-34.7,31.6-46.1c-1.3-1.8-2.7-3.6-4-5.4c-3.6-4.6-7.2-9-10.8-13c-3.6-4.1-7-7.8-10.7-11.3
			c-12.4-11.7-27-21.2-43.1-27.8c-16.2-6.6-33.9-10.2-52.3-10.2c-19.1,0-37.5,3.9-54.2,11c-25,10.5-46.1,28.1-61.1,50.3
			c-7.5,11.1-13.4,23.4-17.5,36.4c-4,13.1-6.2,27-6.2,41.3c0,19.1,3.9,37.5,10.9,54.1c10.6,25.1,28.2,46.2,50.3,61.2
			c11.1,7.5,23.4,13.4,36.5,17.5c13,4,26.9,6.2,41.3,6.2c18.4,0,36.1-3.6,52.3-10.1c16.1-6.6,30.6-16.1,43-27.7l0.1-0.1
			c3.7-3.4,7.1-7.2,10.7-11.3c6.2-7.1,12.6-15.3,18.8-23.5c1.3-1.7,2.6-3.4,3.9-5.1c3.4-4.8,48.1-70.2,51.7-75.5
			c0.8-1.2,1.7-2.4,2.6-3.7c6.1-8.6,12.9-17.9,19.2-26c3.1-4,6.3-7.8,9-11c2.8-3.2,5.3-5.8,7.1-7.6c7.7-7.3,16.8-13.1,26.8-17.2
			c2.4-1,4.9-1.8,7.4-2.6c7.9-2.3,16.3-3.6,25-3.7c11.9,0.1,23.3,2.4,33.5,6.8c15.4,6.5,28.7,17.4,37.9,31.2
			c4.7,6.9,8.4,14.5,10.9,22.5c2.5,8.1,3.9,16.6,3.9,25.6c0,11.9-2.4,23.3-6.7,33.5c-6.6,15.4-17.5,28.7-31.3,37.9
			c-6.9,4.7-14.5,8.4-22.5,10.8c-8,2.5-16.6,4-25.6,4c-11.5,0-22.4-2.2-32.3-6.3c-10-4-19-10-26.8-17.2c-1.8-1.7-4.3-4.4-7.1-7.5
			c-4.9-5.6-10.6-12.9-16.4-20.6c-2.3-3.1-4.6-6.2-6.8-9.3c-0.7,1.1-1.4,2.2-2.2,3.3c-14.8,21.7-24.2,35.5-29.3,42.9
			c1.3,1.8,2.7,3.5,4,5.3c3.6,4.6,7.2,9,10.8,13c3.5,4.1,7,7.9,10.7,11.3c12.4,11.7,27,21.2,43.1,27.8c16.2,6.6,33.9,10.1,52.3,10.1
			c19.1,0,37.5-3.9,54.1-10.9c25.1-10.6,46.2-28.2,61.2-50.4c7.4-11,13.5-23.3,17.5-36.4c4-13,6.2-26.9,6.2-41.3
			C739.7,463.8,735.8,445.5,728.8,428.9z"/>
	</g>
</g>
<g>
	<path class="st1" d="M942.7,796.2V481.6h105.2v314.6H942.7z"/>
	<path class="st1" d="M1493,481.6v251.7c0,17.5-6.1,32.4-18.3,44.6c-12.2,12.2-27.1,18.3-44.6,18.3h-53.8l-156.2-195.1v195.1h-104.7
		V544.6c0-17.5,6.1-32.4,18.3-44.6c12.2-12.2,27.1-18.3,44.6-18.3h53.8l156.2,195.1V481.6H1493z"/>
	<path class="st1" d="M1677.7,565.7v41.8h231.1v84.1h-231.1v104.7H1573V544.6c0-17.5,6.1-32.4,18.3-44.6
		c12.2-12.2,27.1-18.3,44.6-18.3h314.6v84.1H1677.7z"/>
	<path class="st1" d="M2018,796.2V481.6h105.2v314.6H2018z"/>
	<path class="st1" d="M2568.3,481.6v251.7c0,17.5-6.1,32.4-18.3,44.6c-12.2,12.2-27.1,18.3-44.6,18.3h-53.8l-156.2-195.1v195.1
		h-104.7V544.6c0-17.5,6.1-32.4,18.3-44.6c12.2-12.2,27.1-18.3,44.6-18.3h53.8l156.2,195.1V481.6H2568.3z"/>
	<path class="st1" d="M2635.8,796.2V481.6H2741v314.6H2635.8z"/>
	<path class="st1" d="M3190.1,481.6v84.1h-136.7v230.5h-104.7V565.7h-136.1v-84.1H3190.1z"/>
	<path class="st1" d="M3641.4,481.6v251.7c0,17.5-6.1,32.4-18.3,44.6c-12.2,12.2-27.1,18.3-44.6,18.3h-314.6v-21.2
		c0-17.2,6.1-31.9,18.3-44.3c12.2-12.4,27.1-18.6,44.6-18.6h188.8c5.7,0,10.7-2,14.9-6c4.2-4,6.3-8.9,6.3-14.6v-10.9h-209.9
		c-17.5,0-32.4-6.1-44.6-18.3c-12.2-12.2-18.3-27.1-18.3-44.6V481.6h104.7v115.5h147c5.7,0,10.7-2.1,14.9-6.3
		c4.2-4.2,6.3-9.2,6.3-14.9v-94.4H3641.4z"/>
</g>
<polygon class="st1" points="2205.9,203.8 2326.3,377.5 2446.7,377.5 2326.3,203.8 "/>
<polygon class="st1" points="2376.6,203.8 2497,377.5 2617.4,377.5 2497,203.8 "/>
<polygon class="st1" points="2547.3,203.8 2667.7,377.5 2788,377.5 2667.7,203.8 "/>
<polygon class="st1" points="2717.9,203.8 2838.3,377.5 2958.7,377.5 2838.3,203.8 "/>
<polygon class="st1" points="2888.6,203.8 3009,377.5 3129.4,377.5 3009,203.8 "/>
<polygon class="st1" points="3059.3,203.8 3179.7,377.5 3300,377.5 3179.7,203.8 "/>
<polygon class="st1" points="3229.9,203.8 3350.3,377.5 3470.7,377.5 3350.3,203.8 "/>
<polygon class="st1" points="3400.6,203.8 3521,377.5 3641.4,377.5 3521,203.8 "/>
<polygon class="st1" points="2155.7,203.8 2096.3,203.8 2216.7,377.5 2276,377.5 "/>
<rect x="942.7" y="203.8" class="st1" width="1204.4" height="49.1"/>
</svg>
